<svg width="189" height="142" viewBox="0 0 189 142" fill="none" xmlns="http://www.w3.org/2000/svg">
<rect x="1" y="1" width="186.667" height="140" rx="5" stroke="#BDBDBD" stroke-width="2" stroke-dasharray="5 5"/>
<path d="M50 43.7742V80.8371C50 86.4942 54.8678 91.0885 60.8616 91.0885H128.138C134.132 91.0885 139 86.4942 139 80.8371V43.7742C139 38.3914 134.368 34.0199 128.665 34.0199H114.207L113.862 32.5971C112.463 26.8885 107.142 22.9114 100.93 22.9114H88.052C81.8584 22.9114 76.5365 26.8885 75.1198 32.5971L74.7747 34.0199H60.3349C54.6316 34.0199 50 38.4085 50 43.7742ZM76.5547 38.2199C77.59 38.2199 78.48 37.5514 78.7161 36.5914L79.4608 33.5399C80.4053 29.7514 83.929 27.1114 88.052 27.1114H100.93C105.053 27.1114 108.577 29.7514 109.521 33.5399L110.266 36.5914C110.502 37.5342 111.392 38.2199 112.427 38.2199H128.647C131.898 38.2199 134.532 40.7057 134.532 43.7742V80.8371C134.532 84.1799 131.662 86.8885 128.12 86.8885H60.8616C57.3198 86.8885 54.45 84.1799 54.45 80.8371V43.7742C54.45 40.7057 57.0837 38.2199 60.3349 38.2199H76.5547V38.2199Z" fill="#BDBDBD"/>
<path d="M65.0574 49.9971C66.7025 49.9971 68.0362 48.7384 68.0362 47.1857C68.0362 45.633 66.7025 44.3743 65.0574 44.3743C63.4123 44.3743 62.0786 45.633 62.0786 47.1857C62.0786 48.7384 63.4123 49.9971 65.0574 49.9971Z" fill="#BDBDBD"/>
<path d="M94.5 80.3056C104.799 80.3056 113.19 72.3856 113.19 62.6656C113.19 52.9456 104.799 45.0256 94.5 45.0256C84.2014 45.0256 75.81 52.9285 75.81 62.6656C75.81 72.4028 84.2014 80.3056 94.5 80.3056ZM94.5 49.2256C102.347 49.2256 108.74 55.2599 108.74 62.6656C108.74 70.0713 102.347 76.1056 94.5 76.1056C86.6535 76.1056 80.26 70.0713 80.26 62.6656C80.26 55.2599 86.6535 49.2256 94.5 49.2256Z" fill="#BDBDBD"/>
<path d="M25.88 119.27C25.16 119.27 24.662 119.138 24.386 118.874C24.11 118.598 23.972 118.124 23.972 117.452V115.094C23.972 114.59 24.05 114.17 24.206 113.834C24.362 113.486 24.632 113.204 25.016 112.988L23.594 112.142V110.864C24.158 110.336 24.812 109.928 25.556 109.64C26.3 109.352 27.104 109.208 27.968 109.208C29.372 109.208 30.434 109.514 31.154 110.126C31.874 110.726 32.234 111.542 32.234 112.574V119H30.29V112.52C30.29 111.872 30.092 111.386 29.696 111.062C29.3 110.726 28.724 110.558 27.968 110.558C26.96 110.558 26.108 110.828 25.412 111.368V111.602L26.87 112.52V113.366C26.498 113.51 26.246 113.708 26.114 113.96C25.982 114.2 25.916 114.566 25.916 115.058V115.94C26.024 115.928 26.162 115.922 26.33 115.922C26.786 115.922 27.14 116.06 27.392 116.336C27.644 116.6 27.77 117.002 27.77 117.542C27.77 118.142 27.626 118.58 27.338 118.856C27.062 119.132 26.576 119.27 25.88 119.27ZM25.916 118.28C26.216 118.28 26.42 118.232 26.528 118.136C26.636 118.028 26.69 117.83 26.69 117.542C26.69 117.266 26.636 117.08 26.528 116.984C26.42 116.876 26.216 116.822 25.916 116.822C25.628 116.822 25.424 116.876 25.304 116.984C25.196 117.092 25.142 117.278 25.142 117.542C25.142 117.83 25.196 118.028 25.304 118.136C25.412 118.232 25.616 118.28 25.916 118.28ZM30.2973 105.14H32.2413V108.218H30.2973V105.14ZM38.1993 112.628C38.1993 111.896 38.0733 111.368 37.8213 111.044C37.5693 110.72 37.1013 110.558 36.4173 110.558C36.0093 110.558 35.6073 110.648 35.2113 110.828C34.8273 110.996 34.4913 111.224 34.2033 111.512L33.3393 110.396C33.7953 109.988 34.2873 109.688 34.8153 109.496C35.3433 109.304 35.9373 109.208 36.5973 109.208C37.9053 109.208 38.8233 109.508 39.3513 110.108C39.8793 110.696 40.1433 111.542 40.1433 112.646V119H38.1993V112.628ZM45.8035 119.27C44.4355 119.27 43.4095 119.024 42.7255 118.532C42.0415 118.04 41.6995 117.332 41.6995 116.408C41.6995 115.94 41.7775 115.538 41.9335 115.202C42.0895 114.854 42.3535 114.578 42.7255 114.374C42.0535 113.894 41.7175 113.132 41.7175 112.088V111.062C41.7175 110.414 41.8735 109.946 42.1855 109.658C42.4975 109.358 43.0135 109.208 43.7335 109.208C44.4415 109.208 44.9335 109.346 45.2095 109.622C45.4975 109.886 45.6415 110.312 45.6415 110.9C45.6415 111.38 45.5095 111.776 45.2455 112.088C44.9935 112.388 44.6635 112.538 44.2555 112.538C43.9915 112.538 43.7935 112.526 43.6615 112.502C43.6615 112.91 43.7455 113.21 43.9135 113.402C44.0935 113.582 44.3995 113.672 44.8315 113.672H45.5335V115.04H44.8675C44.0155 115.04 43.5895 115.49 43.5895 116.39C43.5895 116.906 43.7935 117.29 44.2015 117.542C44.6095 117.794 45.1375 117.92 45.7855 117.92C46.5055 117.92 47.0395 117.758 47.3875 117.434C47.7475 117.11 47.9275 116.606 47.9275 115.922V109.478H49.8715V115.382C49.8715 116.69 49.5475 117.668 48.8995 118.316C48.2515 118.952 47.2195 119.27 45.8035 119.27ZM43.7155 111.656C44.0035 111.656 44.2015 111.608 44.3095 111.512C44.4175 111.404 44.4715 111.212 44.4715 110.936C44.4715 110.648 44.4175 110.456 44.3095 110.36C44.2135 110.252 44.0155 110.198 43.7155 110.198C43.4155 110.198 43.2115 110.252 43.1035 110.36C42.9955 110.456 42.9415 110.648 42.9415 110.936C42.9415 111.2 42.9955 111.386 43.1035 111.494C43.2235 111.602 43.4275 111.656 43.7155 111.656ZM55.3262 119.27C54.6302 119.27 54.1382 119.132 53.8502 118.856C53.5742 118.58 53.4362 118.142 53.4362 117.542C53.4362 117.002 53.5622 116.6 53.8142 116.336C54.0662 116.06 54.4202 115.922 54.8762 115.922C55.0442 115.922 55.1822 115.928 55.2902 115.94V114.986C55.2902 114.686 55.2602 114.476 55.2002 114.356C55.1522 114.224 55.0502 114.122 54.8942 114.05C54.7382 113.978 54.4382 113.882 53.9942 113.762L51.4202 113.042V111.998C51.4202 111.05 51.7442 110.348 52.3922 109.892C53.0402 109.436 53.9402 109.208 55.0922 109.208C55.9202 109.208 56.6102 109.292 57.1622 109.46C57.7262 109.628 58.2182 109.886 58.6382 110.234L57.8462 111.278C57.1142 110.798 56.2682 110.558 55.3082 110.558C54.6602 110.558 54.1742 110.672 53.8502 110.9C53.5262 111.128 53.3642 111.446 53.3642 111.854V112.178L55.9922 112.916C56.4842 113.048 56.8142 113.27 56.9822 113.582C57.1502 113.882 57.2342 114.332 57.2342 114.932V117.452C57.2342 118.124 57.0962 118.598 56.8202 118.874C56.5442 119.138 56.0462 119.27 55.3262 119.27ZM55.2902 118.28C55.5902 118.28 55.7942 118.232 55.9022 118.136C56.0102 118.028 56.0642 117.83 56.0642 117.542C56.0642 117.278 56.0042 117.092 55.8842 116.984C55.7762 116.876 55.5782 116.822 55.2902 116.822C54.9902 116.822 54.7862 116.876 54.6782 116.984C54.5702 117.08 54.5162 117.266 54.5162 117.542C54.5162 117.83 54.5702 118.028 54.6782 118.136C54.7862 118.232 54.9902 118.28 55.2902 118.28ZM55.0234 124.634C53.5594 124.634 52.8274 124.13 52.8274 123.122V122.978C52.6834 123.014 52.5094 123.032 52.3054 123.032C51.2854 123.032 50.7754 122.51 50.7754 121.466C50.7754 120.902 50.9194 120.5 51.2074 120.26C51.4954 120.032 51.9694 119.918 52.6294 119.918C53.3134 119.918 53.7874 120.044 54.0514 120.296C54.3154 120.548 54.4474 120.998 54.4474 121.646V122.762C54.4474 123.002 54.4894 123.164 54.5734 123.248C54.6454 123.332 54.7894 123.374 55.0054 123.374C55.2454 123.374 55.4074 123.332 55.4914 123.248C55.5634 123.164 55.5994 123.002 55.5994 122.762V120.026H57.2374V122.636C57.2374 123.308 57.0634 123.806 56.7154 124.13C56.3674 124.466 55.8034 124.634 55.0234 124.634ZM52.6114 122.15C52.8754 122.15 53.0674 122.096 53.1874 121.988C53.2954 121.892 53.3494 121.718 53.3494 121.466C53.3494 121.202 53.2954 121.016 53.1874 120.908C53.0674 120.812 52.8754 120.764 52.6114 120.764C52.3474 120.764 52.1614 120.812 52.0534 120.908C51.9334 121.016 51.8734 121.202 51.8734 121.466C51.8734 121.718 51.9334 121.892 52.0534 121.988C52.1734 122.096 52.3594 122.15 52.6114 122.15ZM65.6005 119.27C64.1005 119.27 63.0385 118.958 62.4145 118.334C61.8025 117.71 61.4965 116.822 61.4965 115.67V112.538C61.3885 112.55 61.2505 112.556 61.0825 112.556C60.6265 112.556 60.2725 112.424 60.0205 112.16C59.7685 111.884 59.6425 111.476 59.6425 110.936C59.6425 110.336 59.7805 109.898 60.0565 109.622C60.3445 109.346 60.8365 109.208 61.5325 109.208C62.2525 109.208 62.7505 109.346 63.0265 109.622C63.3025 109.886 63.4405 110.354 63.4405 111.026V115.742C63.4405 116.486 63.5905 117.038 63.8905 117.398C64.2025 117.746 64.7665 117.92 65.5825 117.92C66.2065 117.92 66.6685 117.824 66.9685 117.632C67.2685 117.44 67.4665 117.17 67.5625 116.822C67.6585 116.462 67.7065 115.958 67.7065 115.31V106.148H69.6505V115.67C69.6505 116.834 69.3505 117.728 68.7505 118.352C68.1505 118.964 67.1005 119.27 65.6005 119.27ZM61.4965 111.656C61.7845 111.656 61.9825 111.602 62.0905 111.494C62.2105 111.386 62.2705 111.2 62.2705 110.936C62.2705 110.648 62.2165 110.456 62.1085 110.36C62.0005 110.252 61.7965 110.198 61.4965 110.198C61.1965 110.198 60.9925 110.252 60.8845 110.36C60.7765 110.456 60.7225 110.648 60.7225 110.936C60.7225 111.212 60.7765 111.404 60.8845 111.512C60.9925 111.608 61.1965 111.656 61.4965 111.656ZM76.9736 119.27C75.4736 119.27 74.4116 118.958 73.7876 118.334C73.1756 117.71 72.8696 116.822 72.8696 115.67V112.538C72.7616 112.55 72.6236 112.556 72.4556 112.556C71.9996 112.556 71.6456 112.424 71.3936 112.16C71.1416 111.884 71.0156 111.476 71.0156 110.936C71.0156 110.336 71.1536 109.898 71.4296 109.622C71.7176 109.346 72.2096 109.208 72.9056 109.208C73.6256 109.208 74.1236 109.346 74.3996 109.622C74.6756 109.886 74.8136 110.354 74.8136 111.026V115.742C74.8136 116.486 74.9636 117.038 75.2636 117.398C75.5756 117.746 76.1396 117.92 76.9556 117.92C77.5796 117.92 78.0416 117.824 78.3416 117.632C78.6416 117.44 78.8396 117.17 78.9356 116.822C79.0316 116.462 79.0796 115.958 79.0796 115.31V109.478H81.0236V115.67C81.0236 116.834 80.7236 117.728 80.1236 118.352C79.5236 118.964 78.4736 119.27 76.9736 119.27ZM72.8696 111.656C73.1576 111.656 73.3556 111.602 73.4636 111.494C73.5836 111.386 73.6436 111.2 73.6436 110.936C73.6436 110.648 73.5896 110.456 73.4816 110.36C73.3736 110.252 73.1696 110.198 72.8696 110.198C72.5696 110.198 72.3656 110.252 72.2576 110.36C72.1496 110.456 72.0956 110.648 72.0956 110.936C72.0956 111.212 72.1496 111.404 72.2576 111.512C72.3656 111.608 72.5696 111.656 72.8696 111.656ZM79.6886 108.218C78.5726 108.218 77.6846 108.05 77.0246 107.714C76.3526 107.366 76.0166 106.814 76.0166 106.058C76.0166 105.446 76.1786 104.996 76.5026 104.708C76.8146 104.408 77.3066 104.258 77.9786 104.258C78.6386 104.258 79.1126 104.39 79.4006 104.654C79.6886 104.906 79.8326 105.296 79.8326 105.824C79.8326 106.22 79.7246 106.544 79.5086 106.796C79.7246 106.832 79.9526 106.85 80.1926 106.85C80.6126 106.85 81.0566 106.76 81.5246 106.58C81.9926 106.4 82.3706 106.166 82.6586 105.878L83.4506 106.922C82.9946 107.366 82.4606 107.696 81.8486 107.912C81.2366 108.116 80.5166 108.218 79.6886 108.218ZM77.9426 106.76C78.2306 106.76 78.4346 106.706 78.5546 106.598C78.6626 106.49 78.7166 106.304 78.7166 106.04C78.7166 105.752 78.6626 105.56 78.5546 105.464C78.4466 105.356 78.2426 105.302 77.9426 105.302C77.6426 105.302 77.4446 105.356 77.3486 105.464C77.2406 105.56 77.1866 105.752 77.1866 106.04C77.1866 106.316 77.2406 106.508 77.3486 106.616C77.4566 106.712 77.6546 106.76 77.9426 106.76ZM82.9286 111.872C82.9286 110.996 83.1386 110.336 83.5586 109.892C83.9786 109.436 84.5606 109.208 85.3046 109.208C86.3486 109.208 86.9846 109.58 87.2126 110.324C87.4886 109.58 88.1426 109.208 89.1746 109.208C90.7226 109.208 91.4966 110.096 91.4966 111.872V119H89.5526V112.016C89.5526 111.428 89.5046 111.032 89.4086 110.828C89.3126 110.624 89.0906 110.522 88.7426 110.522C88.4546 110.522 88.2446 110.606 88.1126 110.774C87.9926 110.942 87.9326 111.2 87.9326 111.548V111.746H86.4746V111.548C86.4746 111.188 86.4206 110.93 86.3126 110.774C86.2166 110.606 86.0246 110.522 85.7366 110.522C85.3886 110.522 85.1546 110.63 85.0346 110.846C84.9266 111.05 84.8726 111.434 84.8726 111.998V117.488L86.3126 116.012C85.9886 115.916 85.7666 115.766 85.6466 115.562C85.5266 115.346 85.4666 115.016 85.4666 114.572C85.4666 113.972 85.6106 113.546 85.8986 113.294C86.1866 113.03 86.6246 112.898 87.2126 112.898C87.9086 112.898 88.3886 113.024 88.6526 113.276C88.9166 113.528 89.0486 113.954 89.0486 114.554C89.0486 114.914 88.9706 115.22 88.8146 115.472C88.6706 115.724 88.4366 116.012 88.1126 116.336L85.5206 119H82.9286V111.872ZM87.2486 115.292C87.5366 115.292 87.7346 115.238 87.8426 115.13C87.9626 115.01 88.0226 114.818 88.0226 114.554C88.0226 114.266 87.9626 114.074 87.8426 113.978C87.7346 113.87 87.5366 113.816 87.2486 113.816C86.9486 113.816 86.7446 113.87 86.6366 113.978C86.5286 114.074 86.4746 114.266 86.4746 114.554C86.4746 114.83 86.5286 115.022 86.6366 115.13C86.7566 115.238 86.9606 115.292 87.2486 115.292ZM96.9512 119.27C96.2552 119.27 95.7632 119.132 95.4752 118.856C95.1992 118.58 95.0612 118.142 95.0612 117.542C95.0612 117.002 95.1872 116.6 95.4392 116.336C95.6912 116.06 96.0452 115.922 96.5012 115.922C96.6692 115.922 96.8072 115.928 96.9152 115.94V114.986C96.9152 114.686 96.8852 114.476 96.8252 114.356C96.7772 114.224 96.6752 114.122 96.5192 114.05C96.3632 113.978 96.0632 113.882 95.6192 113.762L93.0452 113.042V111.998C93.0452 111.05 93.3692 110.348 94.0172 109.892C94.6652 109.436 95.5652 109.208 96.7172 109.208C97.5452 109.208 98.2352 109.292 98.7872 109.46C99.3512 109.628 99.8432 109.886 100.263 110.234L99.4712 111.278C98.7392 110.798 97.8932 110.558 96.9332 110.558C96.2852 110.558 95.7992 110.672 95.4752 110.9C95.1512 111.128 94.9892 111.446 94.9892 111.854V112.178L97.6172 112.916C98.1092 113.048 98.4392 113.27 98.6072 113.582C98.7752 113.882 98.8592 114.332 98.8592 114.932V117.452C98.8592 118.124 98.7212 118.598 98.4452 118.874C98.1692 119.138 97.6712 119.27 96.9512 119.27ZM96.9152 118.28C97.2152 118.28 97.4192 118.232 97.5272 118.136C97.6352 118.028 97.6892 117.83 97.6892 117.542C97.6892 117.278 97.6292 117.092 97.5092 116.984C97.4012 116.876 97.2032 116.822 96.9152 116.822C96.6152 116.822 96.4112 116.876 96.3032 116.984C96.1952 117.08 96.1412 117.266 96.1412 117.542C96.1412 117.83 96.1952 118.028 96.3032 118.136C96.4112 118.232 96.6152 118.28 96.9152 118.28ZM107.226 119.27C105.726 119.27 104.664 118.958 104.04 118.334C103.428 117.71 103.122 116.822 103.122 115.67V112.538C103.014 112.55 102.876 112.556 102.708 112.556C102.252 112.556 101.898 112.424 101.646 112.16C101.394 111.884 101.268 111.476 101.268 110.936C101.268 110.336 101.406 109.898 101.682 109.622C101.97 109.346 102.462 109.208 103.158 109.208C103.878 109.208 104.376 109.346 104.652 109.622C104.928 109.886 105.066 110.354 105.066 111.026V115.742C105.066 116.486 105.216 117.038 105.516 117.398C105.828 117.746 106.392 117.92 107.208 117.92C107.832 117.92 108.294 117.824 108.594 117.632C108.894 117.44 109.092 117.17 109.188 116.822C109.284 116.462 109.332 115.958 109.332 115.31V106.148H111.276V115.67C111.276 116.834 110.976 117.728 110.376 118.352C109.776 118.964 108.726 119.27 107.226 119.27ZM103.122 111.656C103.41 111.656 103.608 111.602 103.716 111.494C103.836 111.386 103.896 111.2 103.896 110.936C103.896 110.648 103.842 110.456 103.734 110.36C103.626 110.252 103.422 110.198 103.122 110.198C102.822 110.198 102.618 110.252 102.51 110.36C102.402 110.456 102.348 110.648 102.348 110.936C102.348 111.212 102.402 111.404 102.51 111.512C102.618 111.608 102.822 111.656 103.122 111.656ZM116.727 119.27C116.031 119.27 115.539 119.132 115.251 118.856C114.975 118.58 114.837 118.142 114.837 117.542C114.837 117.002 114.963 116.6 115.215 116.336C115.467 116.06 115.821 115.922 116.277 115.922C116.445 115.922 116.583 115.928 116.691 115.94V114.986C116.691 114.686 116.661 114.476 116.601 114.356C116.553 114.224 116.451 114.122 116.295 114.05C116.139 113.978 115.839 113.882 115.395 113.762L112.821 113.042V111.998C112.821 111.05 113.145 110.348 113.793 109.892C114.441 109.436 115.341 109.208 116.493 109.208C117.321 109.208 118.011 109.292 118.563 109.46C119.127 109.628 119.619 109.886 120.039 110.234L119.247 111.278C118.515 110.798 117.669 110.558 116.709 110.558C116.061 110.558 115.575 110.672 115.251 110.9C114.927 111.128 114.765 111.446 114.765 111.854V112.178L117.393 112.916C117.885 113.048 118.215 113.27 118.383 113.582C118.551 113.882 118.635 114.332 118.635 114.932V117.452C118.635 118.124 118.497 118.598 118.221 118.874C117.945 119.138 117.447 119.27 116.727 119.27ZM116.691 118.28C116.991 118.28 117.195 118.232 117.303 118.136C117.411 118.028 117.465 117.83 117.465 117.542C117.465 117.278 117.405 117.092 117.285 116.984C117.177 116.876 116.979 116.822 116.691 116.822C116.391 116.822 116.187 116.876 116.079 116.984C115.971 117.08 115.917 117.266 115.917 117.542C115.917 117.83 115.971 118.028 116.079 118.136C116.187 118.232 116.391 118.28 116.691 118.28ZM124.481 113.546C123.629 113.546 122.873 113.396 122.213 113.096C121.553 112.796 121.223 112.25 121.223 111.458C121.223 110.846 121.373 110.39 121.673 110.09C121.985 109.79 122.477 109.64 123.149 109.64C123.821 109.64 124.289 109.772 124.553 110.036C124.817 110.288 124.949 110.684 124.949 111.224C124.949 111.404 124.913 111.584 124.841 111.764C124.781 111.932 124.697 112.058 124.589 112.142C124.649 112.154 124.739 112.16 124.859 112.16C125.603 112.16 126.215 111.932 126.695 111.476L127.451 112.484C127.175 112.844 126.779 113.114 126.263 113.294C125.759 113.462 125.165 113.546 124.481 113.546ZM123.113 112.124C123.389 112.124 123.581 112.07 123.689 111.962C123.809 111.842 123.869 111.656 123.869 111.404C123.869 111.116 123.815 110.924 123.707 110.828C123.599 110.72 123.401 110.666 123.113 110.666C122.825 110.666 122.627 110.72 122.519 110.828C122.411 110.924 122.357 111.116 122.357 111.404C122.357 111.656 122.411 111.842 122.519 111.962C122.639 112.07 122.837 112.124 123.113 112.124ZM124.481 118.532C123.629 118.532 122.873 118.382 122.213 118.082C121.553 117.782 121.223 117.236 121.223 116.444C121.223 115.832 121.373 115.376 121.673 115.076C121.985 114.776 122.477 114.626 123.149 114.626C123.821 114.626 124.289 114.758 124.553 115.022C124.817 115.274 124.949 115.67 124.949 116.21C124.949 116.39 124.913 116.57 124.841 116.75C124.781 116.918 124.697 117.044 124.589 117.128C124.649 117.14 124.739 117.146 124.859 117.146C125.603 117.146 126.215 116.918 126.695 116.462L127.451 117.47C127.175 117.83 126.779 118.1 126.263 118.28C125.759 118.448 125.165 118.532 124.481 118.532ZM123.113 117.11C123.389 117.11 123.581 117.056 123.689 116.948C123.809 116.828 123.869 116.642 123.869 116.39C123.869 116.102 123.815 115.91 123.707 115.814C123.599 115.706 123.401 115.652 123.113 115.652C122.825 115.652 122.627 115.706 122.519 115.814C122.411 115.91 122.357 116.102 122.357 116.39C122.357 116.642 122.411 116.828 122.519 116.948C122.639 117.056 122.837 117.11 123.113 117.11ZM132.799 119.27C131.347 119.27 130.351 118.958 129.811 118.334C129.271 117.698 129.001 116.834 129.001 115.742V115.04C129.001 114.548 129.097 114.098 129.289 113.69C129.493 113.27 129.769 112.898 130.117 112.574C129.565 112.55 129.181 112.412 128.965 112.16C128.749 111.896 128.641 111.476 128.641 110.9C128.641 110.312 128.779 109.886 129.055 109.622C129.343 109.346 129.835 109.208 130.531 109.208C131.239 109.208 131.731 109.334 132.007 109.586C132.283 109.838 132.421 110.282 132.421 110.918V111.512C132.421 111.74 132.367 111.95 132.259 112.142C132.163 112.322 132.007 112.544 131.791 112.808C131.515 113.156 131.305 113.474 131.161 113.762C131.017 114.05 130.945 114.404 130.945 114.824V115.814C130.945 116.318 130.981 116.714 131.053 117.002C131.137 117.278 131.311 117.5 131.575 117.668C131.839 117.836 132.247 117.92 132.799 117.92C133.351 117.92 133.759 117.842 134.023 117.686C134.299 117.518 134.473 117.29 134.545 117.002C134.617 116.714 134.653 116.318 134.653 115.814V114.356C134.653 113.888 134.569 113.546 134.401 113.33C134.233 113.114 133.945 113.006 133.537 113.006H133.159V111.62H133.591C134.047 111.62 134.341 111.524 134.473 111.332C134.617 111.128 134.689 110.774 134.689 110.27V109.208H136.633V110.216C136.633 110.744 136.549 111.182 136.381 111.53C136.225 111.878 135.949 112.148 135.553 112.34C135.937 112.544 136.207 112.826 136.363 113.186C136.519 113.534 136.597 113.966 136.597 114.482V115.67C136.597 116.81 136.321 117.698 135.769 118.334C135.217 118.958 134.227 119.27 132.799 119.27ZM130.495 111.656C130.783 111.656 130.981 111.602 131.089 111.494C131.209 111.386 131.269 111.2 131.269 110.936C131.269 110.648 131.215 110.456 131.107 110.36C130.999 110.252 130.795 110.198 130.495 110.198C130.195 110.198 129.991 110.252 129.883 110.36C129.775 110.456 129.721 110.648 129.721 110.936C129.721 111.212 129.775 111.404 129.883 111.512C129.991 111.608 130.195 111.656 130.495 111.656ZM142.561 112.628C142.561 111.896 142.435 111.368 142.183 111.044C141.931 110.72 141.463 110.558 140.779 110.558C140.371 110.558 139.969 110.648 139.573 110.828C139.189 110.996 138.853 111.224 138.565 111.512L137.701 110.396C138.157 109.988 138.649 109.688 139.177 109.496C139.705 109.304 140.299 109.208 140.959 109.208C142.267 109.208 143.185 109.508 143.713 110.108C144.241 110.696 144.505 111.542 144.505 112.646V119H142.561V112.628ZM150.219 119.27C148.767 119.27 147.771 118.958 147.231 118.334C146.691 117.698 146.421 116.834 146.421 115.742V115.04C146.421 114.548 146.517 114.098 146.709 113.69C146.913 113.27 147.189 112.898 147.537 112.574C146.985 112.55 146.601 112.412 146.385 112.16C146.169 111.896 146.061 111.476 146.061 110.9C146.061 110.312 146.199 109.886 146.475 109.622C146.763 109.346 147.255 109.208 147.951 109.208C148.659 109.208 149.151 109.334 149.427 109.586C149.703 109.838 149.841 110.282 149.841 110.918V111.512C149.841 111.74 149.787 111.95 149.679 112.142C149.583 112.322 149.427 112.544 149.211 112.808C148.935 113.156 148.725 113.474 148.581 113.762C148.437 114.05 148.365 114.404 148.365 114.824V115.814C148.365 116.318 148.401 116.714 148.473 117.002C148.557 117.278 148.731 117.5 148.995 117.668C149.259 117.836 149.667 117.92 150.219 117.92C150.771 117.92 151.179 117.842 151.443 117.686C151.719 117.518 151.893 117.29 151.965 117.002C152.037 116.714 152.073 116.318 152.073 115.814V114.356C152.073 113.888 151.989 113.546 151.821 113.33C151.653 113.114 151.365 113.006 150.957 113.006H150.579V111.62H151.011C151.467 111.62 151.761 111.524 151.893 111.332C152.037 111.128 152.109 110.774 152.109 110.27V109.208H154.053V110.216C154.053 110.744 153.969 111.182 153.801 111.53C153.645 111.878 153.369 112.148 152.973 112.34C153.357 112.544 153.627 112.826 153.783 113.186C153.939 113.534 154.017 113.966 154.017 114.482V115.67C154.017 116.81 153.741 117.698 153.189 118.334C152.637 118.958 151.647 119.27 150.219 119.27ZM147.915 111.656C148.203 111.656 148.401 111.602 148.509 111.494C148.629 111.386 148.689 111.2 148.689 110.936C148.689 110.648 148.635 110.456 148.527 110.36C148.419 110.252 148.215 110.198 147.915 110.198C147.615 110.198 147.411 110.252 147.303 110.36C147.195 110.456 147.141 110.648 147.141 110.936C147.141 111.212 147.195 111.404 147.303 111.512C147.411 111.608 147.615 111.656 147.915 111.656ZM162.951 119.27C162.339 119.27 161.865 119.168 161.529 118.964C161.193 118.748 161.025 118.382 161.025 117.866C161.025 117.734 161.031 117.632 161.043 117.56L159.009 119H157.245V112.538C157.137 112.55 156.999 112.556 156.831 112.556C156.375 112.556 156.021 112.424 155.769 112.16C155.517 111.884 155.391 111.476 155.391 110.936C155.391 110.336 155.529 109.898 155.805 109.622C156.093 109.346 156.585 109.208 157.281 109.208C158.001 109.208 158.499 109.346 158.775 109.622C159.051 109.886 159.189 110.354 159.189 111.026V117.164L162.285 115.076C162.441 114.98 162.543 114.884 162.591 114.788C162.651 114.68 162.681 114.53 162.681 114.338V109.478H164.625V114.32C164.625 114.632 164.541 114.902 164.373 115.13C164.217 115.346 163.929 115.598 163.509 115.886C164.025 115.934 164.391 116.09 164.607 116.354C164.823 116.618 164.931 117.002 164.931 117.506C164.931 118.142 164.781 118.598 164.481 118.874C164.193 119.138 163.683 119.27 162.951 119.27ZM157.245 111.656C157.533 111.656 157.731 111.602 157.839 111.494C157.959 111.386 158.019 111.2 158.019 110.936C158.019 110.648 157.965 110.456 157.857 110.36C157.749 110.252 157.545 110.198 157.245 110.198C156.945 110.198 156.741 110.252 156.633 110.36C156.525 110.456 156.471 110.648 156.471 110.936C156.471 111.212 156.525 111.404 156.633 111.512C156.741 111.608 156.945 111.656 157.245 111.656ZM162.987 118.226C163.287 118.226 163.491 118.178 163.599 118.082C163.707 117.974 163.761 117.776 163.761 117.488C163.761 117.212 163.701 117.02 163.581 116.912C163.473 116.804 163.275 116.75 162.987 116.75C162.699 116.75 162.495 116.804 162.375 116.912C162.267 117.02 162.213 117.212 162.213 117.488C162.213 117.776 162.267 117.974 162.375 118.082C162.495 118.178 162.699 118.226 162.987 118.226Z" fill="#BDBDBD"/>
</svg>
