<svg width="36" height="38" viewBox="0 0 36 38" fill="none" xmlns="http://www.w3.org/2000/svg">
<path d="M21.6648 28.6026H15.8845C14.6807 28.6026 13.7047 27.6266 13.7047 26.4228V23.4177C13.7047 22.2135 14.6807 21.2379 15.8845 21.2379H21.6648C22.8687 21.2379 23.8443 22.2135 23.8443 23.4177V26.4228C23.8443 27.6266 22.8687 28.6026 21.6648 28.6026Z" fill="#FFC5B2"/>
<path d="M22.4859 3.71156C22.4859 5.7612 20.8243 7.42278 18.7747 7.42278C16.725 7.42278 15.0631 5.7612 15.0631 3.71156C15.0631 1.66157 16.725 0 18.7747 0C20.8243 0 22.4859 1.66157 22.4859 3.71156Z" fill="#D2D2DD"/>
<path d="M9.25134 18.393V13.0004C9.25134 7.94279 13.3513 3.8428 18.4089 3.8428H19.1401C24.1981 3.8428 28.2981 7.94279 28.2981 13.0004V18.393H9.25134Z" fill="#BCBCC4"/>
<path d="M28.2149 15.8537H27.0677V14.7242C27.0677 11.1775 24.1924 8.30219 20.6457 8.30219H16.9037C13.3566 8.30219 10.4813 11.1775 10.4813 14.7242V15.8537H9.33446C8.40374 15.8537 7.64954 16.6079 7.64954 17.5386V18.3823C7.64954 19.5674 8.60997 20.5279 9.79504 20.5279C10.0038 20.5392 10.2875 20.5508 10.4902 20.4942C10.6649 23.885 13.4695 26.5809 16.9037 26.5809H20.6457C24.0799 26.5809 26.8844 23.885 27.0592 20.4942C27.2619 20.5508 27.5452 20.5392 27.7543 20.5279C28.9394 20.5279 29.8998 19.5674 29.8998 18.3823V17.5386C29.8998 16.6079 29.1453 15.8537 28.2149 15.8537Z" fill="#FFC5B2"/>
<path d="M22.7204 14.0815C21.0988 14.0815 19.7415 15.2315 19.4196 16.7586H18.1298C17.8082 15.2315 16.4505 14.0815 14.8289 14.0815C12.9689 14.0815 11.4556 15.5948 11.4556 17.4552C11.4556 19.3152 12.9689 20.8286 14.8289 20.8286C16.4505 20.8286 17.8082 19.6789 18.1298 18.1517H19.4196C19.7415 19.6789 21.0988 20.8286 22.7204 20.8286C24.5805 20.8286 26.0938 19.3152 26.0938 17.4552C26.0938 15.5948 24.5805 14.0815 22.7204 14.0815ZM14.8289 19.4355C13.7369 19.4355 12.8483 18.5472 12.8483 17.4552C12.8483 16.3632 13.7369 15.4745 14.8289 15.4745C15.921 15.4745 16.8096 16.3632 16.8096 17.4552C16.8096 18.5472 15.921 19.4355 14.8289 19.4355ZM22.7204 19.4355C21.6284 19.4355 20.7398 18.5472 20.7398 17.4552C20.7398 16.3632 21.6284 15.4745 22.7204 15.4745C23.8125 15.4745 24.7007 16.3632 24.7007 17.4552C24.7007 18.5472 23.8125 19.4355 22.7204 19.4355Z" fill="#1F1F1F"/>
<g clip-path="url(#clip0)">
<path d="M22.0572 29.8185V23.2956C22.0572 23.1039 22.2126 22.9486 22.4042 22.9486C22.4962 22.9486 22.5845 22.9852 22.6495 23.0502L25.6148 26.0155L22.0572 29.8185Z" fill="#E67332"/>
<path d="M34.8155 29.8185V23.2956C34.8155 23.1039 34.6601 22.9486 34.4685 22.9486C34.3764 22.9486 34.2882 22.9852 34.2231 23.0502L31.2579 26.0155L34.8155 29.8185Z" fill="#E67332"/>
<path d="M35.3062 31.0453C35.3062 34.8394 32.2304 37.9151 28.4363 37.9151C24.6422 37.9151 21.5665 34.8393 21.5665 31.0453C21.5665 27.2512 24.1002 24.6661 28.4363 24.6661C32.7724 24.6661 35.3062 27.2511 35.3062 31.0453Z" fill="#FF914B"/>
<path d="M29.989 33.043C29.346 32.9051 28.7548 33.1876 28.4364 33.6671C28.1179 33.1876 27.5267 32.9051 26.8837 33.043C26.3317 33.1614 25.8868 33.6088 25.7709 34.1614C25.5713 35.1136 26.2925 35.9522 27.2096 35.9522C27.6195 35.9522 27.9899 35.7846 28.2567 35.5142C28.3576 35.412 28.5151 35.412 28.616 35.5142C28.8828 35.7845 29.2533 35.9522 29.6631 35.9522C30.5802 35.9522 31.3014 35.1136 31.1018 34.1614C30.9859 33.6089 30.541 33.1614 29.989 33.043Z" fill="white"/>
<path d="M27.4499 33.3446L28.1368 34.3062C28.2836 34.5117 28.589 34.5117 28.7357 34.3062L29.4226 33.3446C29.5966 33.101 29.4225 32.7627 29.1231 32.7627H27.7494C27.4501 32.7627 27.2759 33.101 27.4499 33.3446Z" fill="#E67332"/>
<path d="M29.9084 24.7751V26.8742C29.9084 27.1452 30.1282 27.3649 30.3992 27.3649C30.6702 27.3649 30.8899 27.1452 30.8899 26.8742V24.9878C30.5774 24.8991 30.2505 24.8274 29.9084 24.7751Z" fill="#E67332"/>
<path d="M28.4363 24.6661C28.2697 24.6661 28.1068 24.6712 27.9456 24.6787V28.101C27.9456 28.372 28.1653 28.5917 28.4363 28.5917C28.7073 28.5917 28.927 28.372 28.927 28.101V24.6787C28.7658 24.6712 28.6028 24.6661 28.4363 24.6661Z" fill="#E67332"/>
<path d="M25.9827 24.9878V26.8742C25.9827 27.1452 26.2024 27.3649 26.4734 27.3649C26.7444 27.3649 26.9641 27.1452 26.9641 26.8742V24.7751C26.6221 24.8274 26.2951 24.8991 25.9827 24.9878Z" fill="#E67332"/>
<path d="M24.0199 34.2348C24.5619 34.2348 25.0013 33.7954 25.0013 33.2534C25.0013 32.7114 24.5619 32.272 24.0199 32.272C23.4779 32.272 23.0385 32.7114 23.0385 33.2534C23.0385 33.7954 23.4779 34.2348 24.0199 34.2348Z" fill="#E67332"/>
<path d="M32.8526 34.2348C33.3946 34.2348 33.834 33.7954 33.834 33.2534C33.834 32.7114 33.3946 32.272 32.8526 32.272C32.3105 32.272 31.8712 32.7114 31.8712 33.2534C31.8712 33.7954 32.3105 34.2348 32.8526 34.2348Z" fill="#E67332"/>
<path d="M31.1352 31.7813C31.6772 31.7813 32.1166 31.3419 32.1166 30.7999C32.1166 30.2579 31.6772 29.8185 31.1352 29.8185C30.5932 29.8185 30.1538 30.2579 30.1538 30.7999C30.1538 31.3419 30.5932 31.7813 31.1352 31.7813Z" fill="#464655"/>
<path d="M25.7375 31.7813C26.2795 31.7813 26.7189 31.3419 26.7189 30.7999C26.7189 30.2579 26.2795 29.8185 25.7375 29.8185C25.1954 29.8185 24.756 30.2579 24.756 30.7999C24.756 31.3419 25.1954 31.7813 25.7375 31.7813Z" fill="#464655"/>
</g>
<path d="M9.14352 23.5389C5.89717 23.5389 2.94592 24.7194 2.94592 24.7194V31.2121C2.94592 33.5731 4.49534 34.643 6.19228 35.9341H12.0948C13.7917 34.643 15.3411 33.5731 15.3411 31.2121V24.7194C15.3411 24.7194 12.3899 23.5389 9.14352 23.5389Z" fill="#AA968C"/>
<path d="M5.89701 30.3268C6.38598 30.3268 6.78237 29.9304 6.78237 29.4414C6.78237 28.9525 6.38598 28.5561 5.89701 28.5561C5.40804 28.5561 5.01166 28.9525 5.01166 29.4414C5.01166 29.9304 5.40804 30.3268 5.89701 30.3268Z" fill="#464655"/>
<path d="M12.3902 30.3268C12.8792 30.3268 13.2756 29.9304 13.2756 29.4414C13.2756 28.9525 12.8792 28.5561 12.3902 28.5561C11.9013 28.5561 11.5049 28.9525 11.5049 29.4414C11.5049 29.9304 11.9013 30.3268 12.3902 30.3268Z" fill="#464655"/>
<path d="M10.0289 38H8.25815C6.95422 38 5.89716 36.9429 5.89716 35.639V33.278H12.3899V35.639C12.3899 36.9429 11.3328 38 10.0289 38Z" fill="#AA968C"/>
<path d="M9.14349 30.0316C8.58711 30.0316 8.06842 30.309 7.76149 30.773C6.99267 31.9354 5.60199 34.1028 5.60199 34.5721C5.60199 35.2208 6.78249 37.4911 9.14349 36.1938C11.5045 37.4911 12.685 35.2208 12.685 34.5721C12.685 34.1028 11.2943 31.9354 10.5255 30.773C10.2186 30.309 9.69987 30.0316 9.14349 30.0316Z" fill="#D2BEAF"/>
<path d="M10.6192 33.442C10.6192 34.1664 9.14357 34.7537 9.14357 34.7537C9.14357 34.7537 7.66797 34.1664 7.66797 33.442C7.66797 32.7176 8.32864 32.3927 9.14357 32.3927C9.95851 32.3927 10.6192 32.7175 10.6192 33.442Z" fill="#464655"/>
<path d="M5.1109 24.8677L2.7021 30.8895C2.5628 31.2378 2.08223 31.2695 1.89835 30.9426L0.167614 27.8658C-0.11113 27.3703 -0.0369603 26.7513 0.351001 26.3356L3.31389 23.1611C3.58853 22.8668 4.05902 22.8801 4.31669 23.1893L4.96896 23.972C5.17718 24.2219 5.23162 24.5657 5.1109 24.8677Z" fill="#8C7873"/>
<path d="M13.1815 24.8677L15.5903 30.8896C15.7296 31.2378 16.2102 31.2695 16.3941 30.9427L18.1248 27.8658C18.4035 27.3703 18.3293 26.7513 17.9414 26.3357L14.9785 23.1611C14.7038 22.8668 14.2334 22.8801 13.9757 23.1893L13.3234 23.972C13.1153 24.2219 13.0608 24.5657 13.1815 24.8677Z" fill="#8C7873"/>
<defs>
<clipPath id="clip0">
<rect x="20.9531" y="22.9486" width="14.9665" height="14.9665" fill="white"/>
</clipPath>
</defs>
</svg>
