<svg width="11" height="11" viewBox="0 0 11 11" fill="none" xmlns="http://www.w3.org/2000/svg">
<path d="M5.5 0C2.46718 0 0 2.46718 0 5.5C0 8.53282 2.46718 11 5.5 11C8.53282 11 11 8.53282 11 5.5C11 2.46718 8.53282 0 5.5 0ZM8.2876 4.33447L5.3084 7.31358C5.21902 7.40296 5.1017 7.44794 4.98438 7.44794C4.86705 7.44794 4.74973 7.40296 4.66035 7.31358L3.17079 5.82403C2.99153 5.64485 2.99153 5.35515 3.17079 5.17597C3.34997 4.99671 3.63959 4.99671 3.81885 5.17597L4.98438 6.3415L7.63954 3.68642C7.81872 3.50716 8.10834 3.50716 8.2876 3.68642C8.46677 3.86559 8.46677 4.15521 8.2876 4.33447Z" fill="#1EB640"/>
</svg>
